<svg width="29" height="32" viewBox="0 0 29 32" fill="none" xmlns="http://www.w3.org/2000/svg">
<path d="M23.9305 8C25.6933 8 26.3325 8.18565 26.9769 8.53427C27.6214 8.88288 28.1272 9.39446 28.4718 10.0463L28.5935 10.2927C28.8595 10.8776 29 11.5676 29 13.1278V22.5991L28.993 23.3741C28.9419 26.0656 28.6109 27.153 28.0316 28.2484C27.3998 29.4435 26.4725 30.3814 25.2911 31.0205C24.1096 31.6596 22.9377 32 19.7059 32H9.29408L8.52786 31.9929C5.86694 31.9412 4.79196 31.6064 3.70893 31.0205C2.52745 30.3814 1.60022 29.4435 0.968356 28.2484C0.36282 27.1032 0.0285539 25.9668 0.00174959 22.997L0 13.1278C0 11.3447 0.183542 10.6982 0.528194 10.0463C0.872847 9.39446 1.37861 8.88288 2.02306 8.53427L2.26668 8.41122C2.80356 8.16136 3.43014 8.02095 4.75187 8.00217L23.9305 8ZM23.9305 10.6667H5.0695L4.60454 10.6703C3.77579 10.6853 3.522 10.7475 3.26636 10.8858C3.08135 10.9858 2.95192 11.1168 2.85297 11.3039C2.70487 11.584 2.64504 11.862 2.63725 12.8795L2.63636 22.5991C2.63636 25.1768 2.80723 26.0718 3.29314 26.9908C3.67929 27.7212 4.23019 28.2784 4.95224 28.669C5.86081 29.1605 6.74562 29.3333 9.29408 29.3333H19.7059C22.2544 29.3333 23.1392 29.1605 24.0478 28.669C24.7698 28.2784 25.3207 27.7212 25.7069 26.9908C26.1928 26.0718 26.3636 25.1768 26.3636 22.5991V13.1278C26.3636 11.9047 26.3065 11.6056 26.147 11.3039C26.0481 11.1168 25.9186 10.9858 25.7336 10.8858C25.478 10.7475 25.2242 10.6853 24.3955 10.6703L23.9305 10.6667ZM21.0909 13.3333C21.8189 13.3333 22.4091 13.9303 22.4091 14.6667C22.4091 15.403 21.8189 16 21.0909 16C20.3629 16 19.7727 15.403 19.7727 14.6667C19.7727 13.9303 20.3629 13.3333 21.0909 13.3333ZM7.90909 13.3333C8.6371 13.3333 9.22727 13.9303 9.22727 14.6667C9.22727 15.403 8.6371 16 7.90909 16C7.18108 16 6.59091 15.403 6.59091 14.6667C6.59091 13.9303 7.18108 13.3333 7.90909 13.3333ZM14.5 0C18.8681 0 22.4091 3.58172 22.4091 8H19.7727C19.7727 5.05448 17.412 2.66667 14.5 2.66667C11.588 2.66667 9.22727 5.05448 9.22727 8H6.59091C6.59091 3.58172 10.1319 0 14.5 0Z" fill="black"/>
</svg>
