<svg width="30" height="25" viewBox="0 0 30 25" fill="none" xmlns="http://www.w3.org/2000/svg">
<path id="MAIL" d="M7.44086 0L22.0715 0.00215684C23.9839 0.0253559 24.9816 0.238825 26.0164 0.792263C27.0196 1.32875 27.8141 2.12329 28.3506 3.12643C28.9386 4.22595 29.1429 5.28357 29.1429 7.44086V16.8449C29.1429 19.0021 28.9386 20.0598 28.3506 21.1593C27.8141 22.1624 27.0196 22.957 26.0164 23.4935C24.9169 24.0815 23.8593 24.2857 21.702 24.2857H7.44086C5.28357 24.2857 4.22595 24.0815 3.12643 23.4935C2.12329 22.957 1.32875 22.1624 0.792263 21.1593C0.204235 20.0598 0 19.0021 0 16.8449L0.00215655 7.07135C0.0253556 5.159 0.238825 4.16127 0.792263 3.12643C1.32875 2.12329 2.12329 1.32875 3.12643 0.792263C4.22595 0.204235 5.28357 0 7.44086 0ZM26.3344 4.52688L18.0059 12.8542C16.1723 14.6878 13.2375 14.7489 11.3304 13.0375L11.1369 12.8542L2.80843 4.52688C2.52985 5.15196 2.42857 5.86694 2.42857 7.44086V16.8449C2.42857 18.6355 2.55967 19.3144 2.93381 20.014C3.24396 20.5939 3.69182 21.0418 4.27174 21.3519C4.88903 21.682 5.49018 21.8229 6.85318 21.8515L7.44086 21.8571H21.702C23.4927 21.8571 24.1715 21.726 24.8711 21.3519C25.451 21.0418 25.8989 20.5939 26.209 20.014C26.5392 19.3967 26.6801 18.7955 26.7087 17.4325L26.7143 16.8449V7.44086C26.7143 5.86694 26.613 5.15196 26.3344 4.52688ZM21.702 2.42857H7.44086C5.86694 2.42857 5.15196 2.52985 4.52688 2.80843L12.8542 11.1369C13.7527 12.0354 15.18 12.0827 16.1342 11.2788L16.2887 11.1369L24.616 2.80843C23.9909 2.52985 23.2759 2.42857 21.702 2.42857Z" fill="black"/>
</svg>
